<svg xmlns="http://www.w3.org/2000/svg" xmlns:xlink="http://www.w3.org/1999/xlink" width="500" zoomAndPan="magnify" viewBox="0 0 375 374.999991" height="500" preserveAspectRatio="xMidYMid meet" version="1.0"><defs><clipPath id="c2ae7e9b74"><path d="M 227 94 L 248 94 L 248 222 L 227 222 Z M 227 94 " clip-rule="nonzero"/></clipPath><clipPath id="2244a1f0d0"><path d="M 127 94 L 148 94 L 148 222 L 127 222 Z M 127 94 " clip-rule="nonzero"/></clipPath><clipPath id="32aed8acbc"><path d="M 27.539062 0 L 347.789062 0 L 347.789062 167 L 27.539062 167 Z M 27.539062 0 " clip-rule="nonzero"/></clipPath><clipPath id="271e1bc56e"><path d="M 227 246 L 248 246 L 248 374.65625 L 227 374.65625 Z M 227 246 " clip-rule="nonzero"/></clipPath><clipPath id="32a9ccea83"><path d="M 127 246 L 148 246 L 148 374.65625 L 127 374.65625 Z M 127 246 " clip-rule="nonzero"/></clipPath><clipPath id="76f17295ae"><path d="M 27.539062 153 L 347.789062 153 L 347.789062 319 L 27.539062 319 Z M 27.539062 153 " clip-rule="nonzero"/></clipPath><clipPath id="6b0ec1628a"><path d="M 172.433594 335.53125 L 211.902344 335.53125 L 211.902344 375 L 172.433594 375 Z M 172.433594 335.53125 " clip-rule="nonzero"/></clipPath><clipPath id="fc8cbbbf30"><path d="M 192.167969 335.53125 C 181.269531 335.53125 172.433594 344.367188 172.433594 355.265625 C 172.433594 366.164062 181.269531 375 192.167969 375 C 203.066406 375 211.902344 366.164062 211.902344 355.265625 C 211.902344 344.367188 203.066406 335.53125 192.167969 335.53125 Z M 192.167969 335.53125 " clip-rule="nonzero"/></clipPath></defs><path fill="#f4f6fc" d="M 77.308594 183.851562 C 77.304688 189.53125 81.90625 194.128906 87.578125 194.136719 L 87.582031 194.136719 C 93.257812 194.136719 97.859375 189.539062 97.863281 183.863281 L 97.933594 69.792969 L 77.390625 52.660156 L 77.308594 183.851562 " fill-opacity="1" fill-rule="nonzero"/><g clip-path="url(#c2ae7e9b74)"><path fill="#f4f6fc" d="M 227.125 111.421875 L 227.195312 212.097656 C 227.199219 217.769531 231.800781 222.363281 237.476562 222.363281 L 237.480469 222.363281 C 243.15625 222.359375 247.753906 217.757812 247.75 212.078125 L 247.660156 94.296875 L 227.125 111.421875 " fill-opacity="1" fill-rule="nonzero"/></g><g clip-path="url(#2244a1f0d0)"><path fill="#f4f6fc" d="M 127.238281 212.078125 C 127.234375 217.757812 131.832031 222.359375 137.507812 222.363281 L 137.511719 222.363281 C 143.1875 222.363281 147.789062 217.769531 147.789062 212.097656 L 147.863281 111.425781 L 127.320312 94.296875 L 127.238281 212.078125 " fill-opacity="1" fill-rule="nonzero"/></g><path fill="#f4f6fc" d="M 277.054688 69.789062 L 277.125 183.863281 C 277.128906 189.539062 281.730469 194.136719 287.40625 194.136719 C 287.40625 194.136719 287.40625 194.136719 287.410156 194.136719 C 293.082031 194.128906 297.683594 189.53125 297.679688 183.851562 L 297.589844 52.660156 L 277.054688 69.789062 " fill-opacity="1" fill-rule="nonzero"/><g clip-path="url(#32aed8acbc)"><path fill="#f4f6fc" d="M 342.332031 1.90625 C 339.1875 0.0507812 335.296875 0.015625 332.113281 1.792969 L 187.492188 82.527344 L 42.867188 1.792969 C 39.683594 0.015625 35.796875 0.0585938 32.65625 1.90625 C 29.511719 3.75 27.582031 7.125 27.582031 10.769531 L 27.625 155.789062 C 27.625 161.46875 32.226562 166.0625 37.898438 166.0625 L 37.90625 166.0625 C 43.582031 166.0625 48.179688 161.460938 48.179688 155.789062 L 48.144531 28.273438 L 182.480469 103.273438 C 185.59375 105.007812 189.386719 105.007812 192.503906 103.273438 L 326.835938 28.273438 L 326.824219 28.285156 L 326.84375 28.273438 L 326.808594 155.789062 C 326.800781 161.460938 331.402344 166.0625 337.082031 166.0625 C 339.921875 166.0625 342.484375 164.914062 344.351562 163.058594 C 346.210938 161.199219 347.355469 158.628906 347.359375 155.789062 L 347.40625 10.769531 C 347.40625 7.125 345.472656 3.75 342.332031 1.90625 " fill-opacity="1" fill-rule="nonzero"/></g><path fill="#6266f0" d="M 77.308594 336.503906 C 77.304688 342.183594 81.90625 346.785156 87.578125 346.792969 L 87.582031 346.792969 C 93.257812 346.792969 97.859375 342.191406 97.863281 336.515625 L 97.933594 222.445312 L 77.390625 205.316406 L 77.308594 336.503906 " fill-opacity="1" fill-rule="nonzero"/><g clip-path="url(#271e1bc56e)"><path fill="#6266f0" d="M 227.125 264.078125 L 227.195312 364.75 C 227.199219 370.425781 231.800781 375.019531 237.476562 375.019531 L 237.480469 375.019531 C 243.15625 375.011719 247.753906 370.410156 247.75 364.734375 L 247.660156 246.949219 L 227.125 264.078125 " fill-opacity="1" fill-rule="nonzero"/></g><g clip-path="url(#32a9ccea83)"><path fill="#6266f0" d="M 127.238281 364.734375 C 127.234375 370.410156 131.832031 375.011719 137.507812 375.019531 L 137.511719 375.019531 C 143.1875 375.019531 147.789062 370.425781 147.789062 364.75 L 147.863281 264.082031 L 127.320312 246.949219 L 127.238281 364.734375 " fill-opacity="1" fill-rule="nonzero"/></g><path fill="#6266f0" d="M 277.054688 222.441406 L 277.125 336.515625 C 277.128906 342.191406 281.730469 346.792969 287.40625 346.792969 C 287.40625 346.792969 287.40625 346.792969 287.410156 346.792969 C 293.082031 346.785156 297.683594 342.183594 297.679688 336.503906 L 297.589844 205.316406 L 277.054688 222.441406 " fill-opacity="1" fill-rule="nonzero"/><g clip-path="url(#76f17295ae)"><path fill="#6266f0" d="M 342.332031 154.558594 C 339.1875 152.707031 335.296875 152.667969 332.113281 154.449219 L 187.492188 235.179688 L 42.867188 154.449219 C 39.683594 152.667969 35.796875 152.710938 32.65625 154.558594 C 29.511719 156.40625 27.582031 159.777344 27.582031 163.421875 L 27.625 308.441406 C 27.625 314.125 32.226562 318.71875 37.898438 318.71875 L 37.90625 318.71875 C 43.582031 318.71875 48.179688 314.117188 48.179688 308.441406 L 48.144531 180.929688 L 182.480469 255.925781 C 185.59375 257.660156 189.386719 257.660156 192.503906 255.925781 L 326.835938 180.929688 L 326.824219 180.9375 L 326.84375 180.929688 L 326.808594 308.441406 C 326.800781 314.117188 331.402344 318.71875 337.082031 318.71875 C 339.921875 318.71875 342.484375 317.570312 344.351562 315.710938 C 346.210938 313.855469 347.355469 311.28125 347.359375 308.441406 L 347.40625 163.421875 C 347.40625 159.777344 345.472656 156.40625 342.332031 154.558594 " fill-opacity="1" fill-rule="nonzero"/></g><g clip-path="url(#6b0ec1628a)"><g clip-path="url(#fc8cbbbf30)"><path fill="#f4f6fc" d="M 172.433594 335.53125 L 211.902344 335.53125 L 211.902344 375 L 172.433594 375 Z M 172.433594 335.53125 " fill-opacity="1" fill-rule="nonzero"/></g></g></svg>