<svg xmlns="http://www.w3.org/2000/svg" xmlns:xlink="http://www.w3.org/1999/xlink" width="500" zoomAndPan="magnify" viewBox="0 0 375 374.999991" height="500" preserveAspectRatio="xMidYMid meet" version="1.0"><defs><clipPath id="1a248a9c9a"><path d="M 33 77.207031 L 350 77.207031 L 350 279 L 33 279 Z M 33 77.207031 " clip-rule="nonzero"/></clipPath><clipPath id="2b1c2b9654"><path d="M 0 259 L 374.222656 259 L 374.222656 297.558594 L 0 297.558594 Z M 0 259 " clip-rule="nonzero"/></clipPath><clipPath id="225d8f09bd"><path d="M 113.332031 133 L 177 133 L 177 235 L 113.332031 235 Z M 113.332031 133 " clip-rule="nonzero"/></clipPath><clipPath id="d469f41a75"><path d="M 126 119.507812 L 188 119.507812 L 188 235 L 126 235 Z M 126 119.507812 " clip-rule="nonzero"/></clipPath><clipPath id="9117d8fc6b"><path d="M 198 133 L 261.5 133 L 261.5 235 L 198 235 Z M 198 133 " clip-rule="nonzero"/></clipPath><clipPath id="a35baefa76"><path d="M 187 119.507812 L 249 119.507812 L 249 235 L 187 235 Z M 187 119.507812 " clip-rule="nonzero"/></clipPath></defs><g clip-path="url(#1a248a9c9a)"><path fill="#000000" d="M 33.941406 89.578125 L 33.941406 266.414062 C 33.941406 272.859375 39.148438 278.066406 45.59375 278.066406 L 337.472656 278.066406 C 343.917969 278.066406 349.125 272.859375 349.125 266.414062 L 349.125 89.578125 C 349.125 83.132812 343.917969 77.925781 337.472656 77.925781 L 45.566406 77.925781 C 39.148438 77.925781 33.941406 83.132812 33.941406 89.578125 Z M 63.691406 98.613281 L 319.316406 98.613281 C 325.761719 98.613281 330.96875 103.820312 330.96875 110.265625 L 330.96875 245.722656 C 330.96875 252.171875 325.761719 257.378906 319.316406 257.378906 L 63.691406 257.378906 C 57.246094 257.378906 52.039062 252.171875 52.039062 245.722656 L 52.039062 110.265625 C 52.066406 103.820312 57.273438 98.613281 63.691406 98.613281 Z M 63.691406 98.613281 " fill-opacity="1" fill-rule="nonzero"/></g><g clip-path="url(#2b1c2b9654)"><path fill="#06b6d4" d="M 337.03125 297.046875 L 37.960938 297.046875 C 16.996094 297.046875 0 280.050781 0 259.085938 L 374.992188 259.085938 C 374.992188 280.050781 357.996094 297.046875 337.03125 297.046875 Z M 337.03125 297.046875 " fill-opacity="1" fill-rule="nonzero"/></g><g clip-path="url(#225d8f09bd)"><path fill="#000000" d="M 176.039062 234.96875 L 113.605469 234.96875 L 113.605469 133.210938 L 121.496094 133.210938 L 121.496094 228.285156 L 127.0625 227.203125 C 130.625 226.511719 134.375 226.164062 138.214844 226.164062 C 149.328125 226.15625 161.785156 229.054688 176.039062 234.96875 Z M 176.039062 234.96875 " fill-opacity="1" fill-rule="nonzero"/></g><g clip-path="url(#d469f41a75)"><path fill="#06b6d4" d="M 187.492188 234.96875 C 166.011719 224.675781 145.296875 218.90625 126.175781 222.609375 L 126.175781 120.855469 C 147.230469 116.792969 167.574219 122.21875 187.492188 133.210938 Z M 187.492188 234.96875 " fill-opacity="1" fill-rule="nonzero"/></g><g clip-path="url(#9117d8fc6b)"><path fill="#000000" d="M 198.945312 234.96875 L 261.375 234.96875 L 261.375 133.210938 L 253.488281 133.210938 L 253.488281 228.285156 L 247.921875 227.203125 C 244.355469 226.511719 240.605469 226.164062 236.769531 226.164062 C 225.652344 226.15625 213.207031 229.054688 198.945312 234.96875 Z M 198.945312 234.96875 " fill-opacity="1" fill-rule="nonzero"/></g><g clip-path="url(#a35baefa76)"><path fill="#06b6d4" d="M 187.492188 234.96875 C 208.96875 224.675781 229.6875 218.90625 248.808594 222.609375 L 248.808594 120.855469 C 227.753906 116.792969 207.410156 122.21875 187.492188 133.210938 Z M 187.492188 234.96875 " fill-opacity="1" fill-rule="nonzero"/></g></svg>